<svg width="32" height="32" viewBox="0 0 32 32" fill="none" xmlns="http://www.w3.org/2000/svg">
<g clip-path="url(#clip0_19_28)">
<mask id="path-1-inside-1_19_28" fill="white">
<path fill-rule="evenodd" clip-rule="evenodd" d="M0.210938 16.0694L16.0693 31.9278L31.9277 16.0694L23.9985 8.14021L20.0339 12.1048L23.9985 16.0694L16.0693 23.9986L8.14014 16.0694L20.0339 4.17561L16.0693 0.211014L0.210938 16.0694Z"/>
</mask>
<path d="M0.210938 16.0694L-7.56724 8.29124L-15.3454 16.0694L-7.56723 23.8476L0.210938 16.0694ZM16.0693 31.9278L8.29117 39.706L16.0693 47.4841L23.8475 39.706L16.0693 31.9278ZM31.9277 16.0694L39.7059 23.8476L47.4841 16.0694L39.7059 8.29125L31.9277 16.0694ZM23.9985 8.14021L31.7767 0.362051L23.9986 -7.41615L16.2204 0.362037L23.9985 8.14021ZM20.0339 12.1048L12.2558 4.32664L4.47759 12.1048L12.2558 19.883L20.0339 12.1048ZM23.9985 16.0694L31.7767 23.8476L39.5549 16.0694L31.7767 8.29124L23.9985 16.0694ZM16.0693 23.9986L8.29116 31.7768L16.0693 39.555L23.8475 31.7768L16.0693 23.9986ZM8.14014 16.0694L0.361962 8.29124L-7.41621 16.0694L0.361961 23.8476L8.14014 16.0694ZM20.0339 4.17561L27.8121 11.9538L35.5903 4.17561L27.8121 -3.60257L20.0339 4.17561ZM16.0693 0.211014L23.8475 -7.56717L16.0693 -15.3453L8.29116 -7.56716L16.0693 0.211014ZM0.210938 16.0694L-7.56723 23.8476L8.29117 39.706L16.0693 31.9278L23.8475 24.1496L7.98911 8.29123L0.210938 16.0694ZM16.0693 31.9278L23.8475 39.706L39.7059 23.8476L31.9277 16.0694L24.1495 8.29124L8.29116 24.1496L16.0693 31.9278ZM31.9277 16.0694L39.7059 8.29125L31.7767 0.362051L23.9985 8.14021L16.2204 15.9184L24.1495 23.8476L31.9277 16.0694ZM23.9985 8.14021L16.2204 0.362037L12.2558 4.32664L20.0339 12.1048L27.8121 19.883L31.7767 15.9184L23.9985 8.14021ZM20.0339 12.1048L12.2558 19.883L16.2204 23.8476L23.9985 16.0694L31.7767 8.29124L27.8121 4.32664L20.0339 12.1048ZM23.9985 16.0694L16.2204 8.29124L8.29116 16.2204L16.0693 23.9986L23.8475 31.7768L31.7767 23.8476L23.9985 16.0694ZM16.0693 23.9986L23.8475 16.2204L15.9183 8.29124L8.14014 16.0694L0.361961 23.8476L8.29116 31.7768L16.0693 23.9986ZM8.14014 16.0694L15.9183 23.8476L27.8121 11.9538L20.0339 4.17561L12.2558 -3.60256L0.361962 8.29124L8.14014 16.0694ZM20.0339 4.17561L27.8121 -3.60257L23.8475 -7.56717L16.0693 0.211014L8.29117 7.98919L12.2558 11.9538L20.0339 4.17561ZM16.0693 0.211014L8.29116 -7.56716L-7.56724 8.29124L0.210938 16.0694L7.98911 23.8476L23.8475 7.98919L16.0693 0.211014Z" fill="#008CFF" mask="url(#path-1-inside-1_19_28)"/>
</g>
<defs>
<clipPath id="clip0_19_28">
<rect width="32" height="32" fill="white"/>
</clipPath>
</defs>
</svg>
